<svg xmlns="http://www.w3.org/2000/svg" viewBox="0 0 120 160" width="120" height="160">
  <path d="M60 10 C85 10 110 35 110 70 C110 105 85 130 60 150 C35 130 10 105 10 70 C10 35 35 10 60 10Z" fill="none" stroke="#5A8A3C" stroke-width="2.5"/>
  <path d="M60 150 L60 80" fill="none" stroke="#5A8A3C" stroke-width="2" stroke-linecap="round"/>
  <path d="M60 80 C75 65 90 55 100 50" fill="none" stroke="#5A8A3C" stroke-width="1.5" stroke-linecap="round"/>
  <path d="M60 80 C45 65 30 55 20 50" fill="none" stroke="#5A8A3C" stroke-width="1.5" stroke-linecap="round"/>
  <path d="M60 40 C72 40 80 48 80 55" fill="none" stroke="#5A8A3C" stroke-width="1.2" stroke-linecap="round"/>
  <path d="M60 95 C48 95 40 103 40 110" fill="none" stroke="#5A8A3C" stroke-width="1.2" stroke-linecap="round"/>
</svg>