<svg xmlns="http://www.w3.org/2000/svg" viewBox="0 0 140 180" width="140" height="180">
  <path d="M20 170 C40 140 30 110 50 80 C70 50 60 30 80 10" fill="none" stroke="#5A8A3C" stroke-width="2.5" stroke-linecap="round"/>
  <path d="M40 125 C35 115 25 110 22 100" fill="none" stroke="#5A8A3C" stroke-width="1.5" stroke-linecap="round"/>
  <path d="M22 100 C18 90 22 80 28 76 Q30 90 22 100Z" fill="#5A8A3C" opacity="0.3"/>
  <path d="M55 70 C60 60 55 48 52 42" fill="none" stroke="#5A8A3C" stroke-width="1.5" stroke-linecap="round"/>
  <path d="M52 42 C48 36 42 34 38 36 Q42 44 52 42Z" fill="#5A8A3C" opacity="0.3"/>
  <path d="M70 30 C75 22 82 18 88 20" fill="none" stroke="#5A8A3C" stroke-width="1.5" stroke-linecap="round"/>
  <path d="M88 20 C94 22 96 28 92 32 Q88 24 88 20Z" fill="#5A8A3C" opacity="0.3"/>
  <path d="M30 150 C25 140 20 138 15 130" fill="none" stroke="#5A8A3C" stroke-width="1.5" stroke-linecap="round"/>
  <path d="M15 130 C12 122 16 116 22 114 Q18 124 15 130Z" fill="#5A8A3C" opacity="0.3"/>
  <path d="M60 105 C65 110 72 108 76 112" fill="none" stroke="#5A8A3C" stroke-width="1.5" stroke-linecap="round"/>
  <path d="M76 112 C80 116 78 122 72 124 Q74 116 76 112Z" fill="#5A8A3C" opacity="0.3"/>
  <path d="M42 95 C38 90 35 85 32 82" fill="none" stroke="#5A8A3C" stroke-width="1.2" stroke-linecap="round"/>
  <circle cx="32" cy="82" r="4" fill="none" stroke="#5A8A3C" stroke-width="1.2"/>
  <circle cx="65" cy="55" r="3.5" fill="none" stroke="#5A8A3C" stroke-width="1.2"/>
</svg>